<svg xmlns="http://www.w3.org/2000/svg" viewBox="0 0 700 340" width="700" height="340"><g><path d="M20.771214889734985 38.51394239738583 L123.31346421167255 37.83096164539457 L126.34958484098316 90.809859097749 L21.508507441729307 91.16271971538663" stroke="none" stroke-width="0" fill="#f87171"/><path d="M18.359081590920688 40.82747533246875 C43.622463741153474 41.12703542826772, 62.74213327541948 37.62126915572286, 127.57701097801329 38.69691967889666 M18.95187134705484 40.18179368413985 C44.76613520674408 39.539752959659694, 67.3675080599636 38.55093439762891, 125.3002840872854 39.61317735351622 M124.5308621056378 41.24470124170184 C126.91787363085896 53.37251433301717, 125.2483091691509 67.50984814576805, 126.8092536814511 89.0844573251903 M126.70711859427394 40.92166419662535 C126.21269396487624 53.736864186264576, 124.92923831883819 67.48175816088914, 125.94387323819102 90.70508071817457 M127.72450007274747 89.7430115930736 C87.18075561210514 87.1966940216124, 50.638073926121 87.71627717533707, 18.900194657593964 89.29631671831012 M125.2192776914686 88.95344488061964 C83.99887038104237 89.74634245457946, 43.16154374383389 90.18741509738265, 20.057008516415955 89.05809591449797 M18.38445350006223 91.55490150377155 C19.08200741168112 80.71689214389771, 21.069539812766017 67.87722186483442, 20.051323164254427 40.620461725443604 M20.604986822232604 90.11889599002897 C20.878140401653944 79.06886799316854, 19.161656343750657 66.39201542660594, 19.346562480553985 41.11749882139266" stroke="#334155" stroke-width="1.5" fill="none"/></g><text x="72.80000000000001" y="26" font-family="Caveat, 'Segoe Print', cursive" font-size="14" fill="#475569" text-anchor="middle">16%</text><text x="72.80000000000001" y="108" font-family="Caveat, 'Segoe Print', cursive" font-size="14" fill="#334155" text-anchor="middle">History</text><g><path d="M123.41153044477106 38.78609954342246 L306.0110605455935 42.103596343845126 L302.4991137482226 88.51974045261741 L124.79138829484583 91.10438050255179" stroke="none" stroke-width="0" fill="#fb923c"/><path d="M123.3043349646032 38.75307636037469 C163.56659458035602 38.129243065804985, 198.21619779352096 40.41473126599267, 303.5819031856954 38.64867670312524 M125.97455471642316 40.93071646206081 C196.95237908331677 42.38008475451097, 266.622719395645 41.49933883099183, 303.2601673115045 40.93629363290965 M303.75651198849084 38.39019644036889 C303.6315323231742 49.777480935119094, 301.94838443975897 63.104143023863436, 302.1019169710577 91.43410992398859 M304.55075445063414 39.66808655969798 C304.98609930705277 55.49325261991471, 304.94552431534976 70.96478823274374, 303.0298473466188 89.96126863472163 M302.6839537523687 87.73158058896661 C249.09235028242693 89.40029325684831, 194.6864790817723 89.54273793896958, 125.70224920734763 91.27148787751794 M303.5473357308656 90.44306461326778 C263.05627971099693 91.37872825941817, 220.60112342562527 91.70774872383848, 126.77929613478483 90.20372219793498 M126.1333155296743 91.27393290773034 C127.2625785874203 68.16899257544428, 125.96121933925897 53.18082241527736, 124.02564891800286 38.09892091527581 M124.57632248289885 89.66257200948894 C126.6689136678353 76.83837045971305, 125.30720754209906 63.348014048486945, 125.32874072678388 40.443622584268454" stroke="#334155" stroke-width="1.5" fill="none"/></g><text x="214.70000000000002" y="26" font-family="Caveat, 'Segoe Print', cursive" font-size="14" fill="#475569" text-anchor="middle">27%</text><text x="214.70000000000002" y="108" font-family="Caveat, 'Segoe Print', cursive" font-size="14" fill="#334155" text-anchor="middle">Understanding</text><g><path d="M301.6748311720789 41.575507418066266 L567.9185774765908 42.25337251797318 L567.5448150835931 88.76890012398363 L306.1778848133981 90.47782754078507" stroke="none" stroke-width="0" fill="#60a5fa"/><path d="M304.13524143326214 39.14370499522813 C357.0784459532794 41.70896720459673, 410.1099215483441 39.587750027522254, 566.590388393217 40.16836514192461 M304.35715723675054 39.80373806458209 C400.26330051285254 40.644847294886354, 496.0844764107302 40.74993352516073, 568.0034984040286 40.76303878777339 M566.2688461937009 40.07461614236236 C569.3505885021762 54.43521774653345, 565.794119037874 64.28624522350728, 565.6301751054823 91.18251673802733 M567.8245016675442 39.51999402828515 C566.7025530071929 54.39331788290292, 566.6615588041022 67.46518490463495, 568.0269707184284 90.10354926176369 M567.8891867194261 88.47160798124148 C505.39614141372107 89.25472090460438, 443.761463542575 85.9399059366455, 303.69298642706366 91.57888446965977 M567.9637012098606 90.76505318377436 C480.85388855788443 87.04985116580788, 395.23096734870927 87.4526514106895, 303.19197901775556 89.10157087859987 M302.53655597344044 91.09339394196869 C302.2910968123004 80.6378847559914, 304.00614681821315 65.82001823969185, 301.49838079586624 39.33939725980163 M303.91311191134156 90.02507236786187 C303.8762433161959 77.85512083675712, 302.4794332256541 66.27455719932914, 304.8176645498723 40.485486884787676" stroke="#334155" stroke-width="1.5" fill="none"/></g><text x="435.8" y="26" font-family="Caveat, 'Segoe Print', cursive" font-size="14" fill="#475569" text-anchor="middle">40%</text><text x="435.8" y="108" font-family="Caveat, 'Segoe Print', cursive" font-size="14" fill="#334155" text-anchor="middle">Work</text><g><path d="M567.1621205389499 40.920535653829575 L681.5765460073948 42.25232295393944 L681.8813096106053 91.49621352553368 L565.9230910360812 89.7274026811123" stroke="none" stroke-width="0" fill="#fbbf24"/><path d="M569.5756421983242 38.424555307626726 C588.5631221203506 37.774329998058086, 613.7168068763614 39.244852878612285, 681.8190387666225 40.42030363678932 M567.7589614421129 39.02777223289013 C595.4027344025671 39.946353994351625, 624.1749772116542 40.49692782018781, 681.1055630236864 40.232716366648674 M681.875119394064 40.288270860910416 C679.4607069417834 50.60423289388418, 680.9141678258777 60.06346274912357, 679.5106973588466 91.67220888733864 M679.0584187060595 40.12936019599438 C679.8295507714153 60.362190167605874, 679.8023610398174 80.67665771245956, 679.4189393550157 90.4216059654951 M680.4654596269131 89.40165072083474 C651.178355538398 90.78735616841912, 625.1805031588674 92.64199770131707, 568.5891174256801 88.68725500702858 M681.1845635920763 90.06915311515331 C636.2758945725858 90.39908550125956, 593.7372969642281 89.07801015717388, 566.7376165896653 90.89039973914623 M568.3566238343715 88.38910894989968 C568.0512251332401 82.0022924438119, 564.9891220524906 67.26694688498974, 568.908009904623 38.34610605835915 M567.0964781314134 90.29588145911694 C567.9817189946771 77.83116376549006, 568.662213589251 65.34085708260537, 567.6488017588854 39.909703156352045" stroke="#334155" stroke-width="1.5" fill="none"/></g><text x="623.9" y="26" font-family="Caveat, 'Segoe Print', cursive" font-size="14" fill="#475569" text-anchor="middle">17%</text><text x="623.9" y="108" font-family="Caveat, 'Segoe Print', cursive" font-size="14" fill="#334155" text-anchor="middle">Buffer</text><text x="435.8" y="126" font-family="Caveat, 'Segoe Print', cursive" font-size="15" fill="#1d4ed8" text-anchor="middle" font-style="italic">← this is all you get</text><text x="56.099999999999994" y="160" font-family="Caveat, 'Segoe Print', cursive" font-size="15" fill="#92400e" font-style="italic">auto-compress: 83% squashed into 17%</text><g><path d="M57.32003020990044 168.2882759084794 C57.295091039812284 169.8260487906961, 58.91900273452594 174.42017103368474, 53.49198721458387 188.5620265633412 M55.57187890007243 165.0642618806591 C57.126750943820845 170.77696641436367, 57.67011582600475 176.97680835683636, 56.43883517045833 187.09250163822625" stroke="#92400e" stroke-width="1.5" fill="none"/></g><g><path d="M56.94083484858296 185.26940601811845 C54.211700836014494 182.7811954088456, 53.2103369528524 180.6465360166213, 50.363459310345114 177.7770732902358 M56.28467727589285 186.4310853547925 C54.25744083249617 182.4488314757192, 51.758045675398016 180.43705468622593, 50.287633599582364 178.31618934542468" stroke="#92400e" stroke-width="1.5" fill="none"/></g><g><path d="M56.35754198739163 186.43720511247784 C57.96417174127431 184.58628754207533, 60.21103514354976 180.78813192319734, 62.51517312534749 178.36711372458024 M55.91083265753521 186.4836654709944 C57.82107066030034 184.0119424751158, 58.157051980974664 182.46098448580187, 62.50102808816718 177.64418954657125" stroke="#92400e" stroke-width="1.5" fill="none"/></g><g><path d="M19.826853892952204 192.86426669582724 L130.01767427697777 191.75502399429678 L134.56322870031 242.61259266361594 L18.06046540513635 244.7255713365972" stroke="none" stroke-width="0" fill="#fbbf24"/><path d="M18.353003825992346 194.2476844765246 C41.85191458953545 194.7328345497571, 64.80008301299065 193.0512145956479, 130.97418166622518 192.1232103563845 M20.444615732505916 192.846023793146 C57.2867723990418 193.43742124380543, 93.95142547976225 192.36010244430972, 132.35114812739192 194.07125733606517 M130.4809682033956 192.21614610925317 C130.5684639809653 211.0126610746607, 132.44549065809696 229.09601457156242, 130.52564686760306 243.69994606748224 M132.70416202433407 194.405076630041 C133.0814648790285 204.25570383947343, 133.01202331017703 215.24303263276815, 131.2372801888734 243.75199710838496 M134.0632988832891 244.90039524808526 C98.89890406923368 241.8974259865917, 68.99465558696538 245.81065313941613, 22.342782082408668 244.43389994874596 M131.36797658093272 242.9975382041186 C86.3594598496519 243.76538763699457, 42.71057332161813 243.48826491293835, 20.733942722156645 243.34914122335613 M21.102901139110326 245.34088599458337 C18.227876620180904 227.24685374144465, 21.130051307566465 207.00455259792506, 19.024586334079505 193.00693235173821 M19.21995832808316 244.20845490209757 C19.079951255954803 226.33653573337943, 20.65832386557013 207.99504373446106, 21.133237778022885 193.3207829426974" stroke="#334155" stroke-width="1.5" fill="none"/></g><text x="76.1" y="180" font-family="Caveat, 'Segoe Print', cursive" font-size="14" fill="#475569" text-anchor="middle">17%</text><text x="76.1" y="262" font-family="Caveat, 'Segoe Print', cursive" font-size="14" fill="#334155" text-anchor="middle">Lossy Summary</text><g><path d="M134.40265067368745 193.35066956728696 L680.1706825092435 196.2154036924243 L680.5516370132566 241.6702669069171 L132.85386379510163 241.85925335139035" stroke="none" stroke-width="0" fill="#bfdbfe"/><path d="M132.3678210991621 194.41227765381336 C243.31984903890637 192.19819625186506, 354.47497939564283 193.41345769214215, 680.6695193833112 194.93015181839465 M131.81948072105644 193.63388611644507 C305.5368950624391 194.62644008975684, 479.33854432813814 194.66172700267495, 679.7127815118432 193.99635818332433 M680.54389924258 192.560338576138 C680.6758836772293 205.45529111735522, 678.8927097823471 222.07932843640447, 678.7883716985583 245.4902611091733 M680.9230233825743 193.26170024499297 C679.036938464269 205.45273770950735, 679.6029512997716 218.34582214057446, 680.7736741937697 243.62700745686888 M679.9927298134565 244.42082536041735 C512.2081815580651 242.03218243020473, 345.1082591571659 241.9995031966537, 131.87455871284007 244.06362750351428 M680.4722817960381 244.39457655757667 C552.2011475168541 243.51026270545782, 424.39504894323653 243.56972503341495, 132.5088082948327 243.6051998695731 M132.29577979296445 244.9863861873746 C130.26403141655027 233.50286555476487, 132.43640256561338 224.78368360623716, 131.78501238077877 192.53263257294893 M132.8205976642668 244.06985182389616 C132.5771487433463 224.68895470686257, 132.82776698656377 204.0760713532567, 132.91100219860672 194.78712894544006" stroke="#334155" stroke-width="1.5" fill="none"/></g><text x="406.09999999999997" y="180" font-family="Caveat, 'Segoe Print', cursive" font-size="14" fill="#475569" text-anchor="middle">83%</text><text x="406.09999999999997" y="262" font-family="Caveat, 'Segoe Print', cursive" font-size="14" fill="#334155" text-anchor="middle">Free</text><text x="76.1" y="280" font-family="Caveat, 'Segoe Print', cursive" font-size="14" fill="#92400e" text-anchor="middle" font-style="italic">details drop out here</text></svg>