<svg xmlns="http://www.w3.org/2000/svg" viewBox="0 0 700 240" width="700" height="240"><g><path d="M18.54436099678278 32.04967570155859 L562.2957899346948 27.675937651097776 L560.7863561406732 65.79726643413305 L21.04804203659296 64.03714837878942" stroke="none" stroke-width="0" fill="#fca5a5"/><path d="M19.042431105971335 29.27191634237766 C128.37572282984854 30.71554277604818, 235.47182644337417 31.905884248673914, 560.3211317247152 29.26948372900486 M19.88290224581957 30.054307956397533 C180.0002704049647 31.853876778960228, 340.82348359584813 31.889276873946187, 560.2996543839574 30.296768006980418 M558.2498939022422 30.628555132448675 C560.0153185082971 44.06849714890122, 561.2687273694575 55.43112135529518, 560.483606813848 67.78451125770808 M559.4029565699399 29.31658756658435 C559.0940443878769 40.864456531405445, 560.2800303106903 49.805317897349596, 560.1065930493176 65.75308360978961 M559.1444804757833 66.49704653799535 C421.1616686312854 68.33124693614245, 280.7552233639359 66.97378933650255, 19.58296503007412 66.50496670782566 M559.7005204442144 66.46236267060041 C349.9710908512771 65.53906495857238, 140.81104144632812 65.82634310531616, 20.209226317703724 66.36358187645673 M19.6815523609519 63.814015509188174 C18.966914496153592 59.31391719505191, 18.052272209852934 50.16042685210705, 18.626736830174924 29.213529373705388 M20.185028494149446 67.11044108793139 C20.139187735080718 55.426897837221624, 19.244331067562104 44.986102847009896, 19.4133247025311 30.59671587869525" stroke="#991b1b" stroke-width="1.5" fill="none"/></g><g><path d="M452.9302157690071 19.12840415458965 C450.48426382523365 34.403946209453586, 450.31665534366704 49.51248212026868, 453.5939534247829 75.62708519824236 M452.1837444676625 20.605649880390935 C451.6273011560879 39.66734854329322, 451.35321222183427 58.068906191333, 452.37541592460605 76.17764433273092" stroke="#dc2626" stroke-width="2" fill="none" stroke-dasharray="6 4"/></g><text x="452" y="16" font-family="Caveat, 'Segoe Print', cursive" font-size="13" fill="#dc2626" text-anchor="middle">200k limit</text><text x="568" y="53" font-family="Caveat, 'Segoe Print', cursive" font-size="15" fill="#991b1b">250k — fails</text><g><path d="M454.14484688732773 27.90409819688648 C474.7995881546848 38.022768418136984, 498.43882628237833 45.484500768799336, 558.9056881675497 66.47353579010814 M453.297018207144 31.36587704764679 C478.3409987387434 38.66821537960321, 503.8815526963398 46.723966415338225, 559.4238242725842 66.42146191047505" stroke="#dc2626" stroke-width="2" fill="none"/></g><g><path d="M453.28969377465546 64.80819639377296 C471.65843435008077 59.058415826149286, 497.33691060546784 52.374759517349304, 560.8113763350993 27.94707158021629 M453.094036414288 67.23175409529358 C482.146060422808 56.83503407008946, 511.6271683380008 46.32513945244253, 560.3476485451683 29.34292382095009" stroke="#dc2626" stroke-width="2" fill="none"/></g><g><path d="M20.931328494101763 109.35773878619075 L366.2089482136071 109.33921902701259 L365.0416529245675 146.02832179591059 L19.121410400420427 143.60143869444727" stroke="none" stroke-width="0" fill="#86efac"/><path d="M18.429832868024665 108.59534278652069 C88.74978696598333 112.31171727817205, 159.1658504666425 110.11357015590161, 364.7270255061771 108.58801436934414 M20.0416076136245 110.2950640842916 C104.23156598498359 112.58244297495322, 189.23335582479663 112.68908822612505, 365.05669627360527 109.97383119797406 M363.5914721541107 111.5523510761559 C366.5320839318782 120.99224477298559, 368.03000017733876 137.02372248470783, 364.48661249205475 147.2716039724648 M366.7054203782231 110.54707720540463 C366.4670813777745 119.31817030757665, 365.04138890293245 129.30974947847426, 364.79542059041563 144.94731995128095 M366.4405850446212 145.6569811307182 C293.61837432224775 147.3680928574723, 221.38225418785998 145.9078089942596, 21.109889625563213 146.73250186583988 M365.092169736436 146.7356118210377 C245.67069536845617 148.4648241105957, 126.38702745663147 147.75277852379628, 20.23593609920839 145.38636712824393 M20.616179328411818 143.992361766845 C21.34600990961492 133.74218152426184, 19.669165718063713 127.76078256219625, 21.88235085532069 108.95813718512655 M20.939218905940653 147.03580866120757 C20.59117751431465 138.01597936823964, 19.350606957197186 131.6745218861848, 19.924428621307015 110.09397911094129" stroke="#166534" stroke-width="1.5" fill="none"/></g><text x="373.6" y="133" font-family="Caveat, 'Segoe Print', cursive" font-size="15" fill="#166534">160k ✓</text><g><path d="M21.407232564687728 158.92313004136085 L276.81022652983665 161.64482174515723 L279.5904604852199 194.31808205246926 L19.33875474333763 197.0302156507969" stroke="none" stroke-width="0" fill="#86efac"/><path d="M21.383860222089304 158.86714565676894 C73.73264245504365 158.26722136526737, 124.56694233638225 159.60033797748716, 279.35737863342194 160.50532270997513 M19.920604467547424 160.27373438968465 C91.99255141507915 158.1123769197483, 165.1955879832039 157.98622989230552, 279.12986654259265 159.2767120502079 M280.67596817612645 160.05982980132103 C277.8035244935751 170.16256545484066, 278.82971448838714 186.42711141109467, 279.6418428480625 197.79611882567406 M278.2347661465406 160.7966596633196 C279.86180728888513 167.0493374943733, 279.9467301747799 175.03971368968487, 280.16619496047497 195.99693708717822 M277.8985696036654 195.2473554306884 C181.56872401605136 197.11110931703197, 84.4070656387903 197.27440895504765, 19.623242484532252 194.54798199228227 M279.179290181825 196.33806799586628 C205.83966119113364 193.8958400944603, 132.96676320330096 194.00270276684614, 19.641891456048484 196.65607370037537 M18.304204946756364 197.47698487639428 C20.763439896702764 186.79106459915636, 20.218475106358525 180.98375149965287, 17.694115263223647 159.83787106871605 M20.216250178217887 197.01235275566577 C21.25163144493103 187.73254784941673, 19.49097937965393 180.48516786992548, 19.742204138636588 159.93597612679005" stroke="#166534" stroke-width="1.5" fill="none"/></g><text x="287.2" y="183" font-family="Caveat, 'Segoe Print', cursive" font-size="15" fill="#166534">120k ✓</text><g><path d="M451.5256713981534 104.78693620221692 C452.87377761097224 128.66533402846264, 450.84847376225315 149.33763414374803, 450.69066579522064 200.8508053079217 M451.17596086026873 103.74338691425838 C453.02755162855664 128.96959147976142, 453.0520102836237 154.3012846780209, 451.7349451634442 202.84917934855517" stroke="#dc2626" stroke-width="1.5" fill="none" stroke-dasharray="6 4"/></g><text x="20" y="226" font-family="Caveat, 'Segoe Print', cursive" font-size="16" fill="#166534" font-style="italic">280k total — both succeed</text></svg>